<?xml version="1.0" encoding="utf-8"?>
<!-- Generator: Adobe Illustrator 27.5.0, SVG Export Plug-In . SVG Version: 6.00 Build 0)  -->
<svg version="1.1" xmlns="http://www.w3.org/2000/svg" xmlns:xlink="http://www.w3.org/1999/xlink" x="0px" y="0px"
	 viewBox="0 0 500 500" style="enable-background:new 0 0 500 500;" xml:space="preserve">
<g id="Floor">
	<path style="fill:#F5F5F5;" d="M409.038,257.085c-88.41-51.043-231.282-51.043-319.117,0.001
		C2.081,308.134,2.546,390.891,90.956,441.935c88.415,51.047,231.288,51.046,319.128-0.002
		C497.919,390.889,497.454,308.132,409.038,257.085z"/>
</g>
<g id="Shadows_1_">
	<path style="fill:#E0E0E0;" d="M286.323,389.38c-20.535-11.856-53.719-11.855-74.12,0c-20.402,11.857-20.294,31.078,0.24,42.934
		c20.536,11.856,53.72,11.856,74.123,0C306.967,420.458,306.859,401.236,286.323,389.38z"/>
	<path style="fill:#E0E0E0;" d="M212.19,331.634l-8.99-5.2c-0.015-0.009-0.031-0.014-0.047-0.023l3.516-2.032
		c2.525-1.459,2.526-5.104,0.001-6.564l-11.305-6.539c-3.519-2.035-7.856-2.038-11.378-0.006l-113.8,65.651
		c-2.518,1.453-2.532,5.083-0.024,6.554l11.283,6.62c3.531,2.072,7.902,2.086,11.447,0.038l10.804-6.244l8.908,5.226
		c2.808,1.647,6.285,1.659,9.103,0.03l90.482-52.291C214.197,335.694,214.197,332.796,212.19,331.634z"/>
	<path style="fill:#E0E0E0;" d="M274.445,237.397c9.612,5.549,9.663,14.546,0.114,20.096c-9.55,5.55-25.082,5.55-34.694,0
		c-9.611-5.549-9.662-14.546-0.112-20.096C249.301,231.848,264.834,231.848,274.445,237.397z"/>
	<path style="fill:#E0E0E0;" d="M385.612,348.694l-47.524-27.438c-1.401-0.809-1.404-2.83-0.005-3.643l41.885-24.341
		c0.652-0.379,1.457-0.38,2.11-0.003l48.58,28.048c1.401,0.809,1.404,2.83,0.005,3.643l-40.831,23.728
		C388.528,349.445,386.918,349.448,385.612,348.694z"/>
</g>
<g id="Window">
	<g>
		<g>
			<g style="enable-background:new    ;">
				<g>
					<polygon style="fill:#F0F0F0;" points="308.305,44.865 312.995,42.139 312.72,148.322 308.03,151.048 					"/>
				</g>
				<g>
					<polygon style="fill:#F5F5F5;" points="308.03,151.048 312.72,148.322 448.001,226.427 443.311,229.153 					"/>
				</g>
				<g>
					<path style="fill:#E0E0E0;" d="M302.926,35.548l146.074,84.336l-0.31,118.585l-146.074-84.336L302.926,35.548z
						 M443.311,229.153l0.275-106.183L308.305,44.865l-0.275,106.183L443.311,229.153"/>
				</g>
				<g>
					<polygon style="fill:#F5F5F5;" points="302.926,35.548 307.616,32.822 453.69,117.158 448.999,119.884 					"/>
				</g>
				<g>
					<polygon style="fill:#F0F0F0;" points="448.999,119.884 453.69,117.158 453.38,235.743 448.689,238.469 					"/>
				</g>
			</g>
		</g>
		<g>
			<polygon style="fill:#E0E0E0;" points="373.243,82.359 372.968,188.543 378.364,191.658 378.639,85.475 			"/>
			<polygon style="fill:#F0F0F0;" points="378.641,85.474 378.639,85.475 378.364,191.658 383.055,188.932 383.314,88.172 			"/>
			
				<rect x="375.941" y="80.801" transform="matrix(0.5 -0.866 0.866 0.5 115.2976 367.534)" style="fill:#E0E0E0;" width="0.003" height="6.231"/>
		</g>
		<polygon style="opacity:0.2;" points="378.627,89.829 378.639,85.475 373.243,82.359 373.23,86.713 378.627,89.829 		"/>
		<polygon style="opacity:0.2;" points="378.627,89.829 382.411,87.65 378.641,85.474 378.639,85.475 		"/>
		
			<rect x="375.941" y="80.801" transform="matrix(0.5 -0.866 0.866 0.5 115.2937 367.5303)" style="fill:#E0E0E0;" width="0.003" height="6.231"/>
	</g>
</g>
<g id="Table">
	<g>
		<g>
			<g>
				<path style="fill:#E6E6E6;" d="M259.367,170.949h-2.212h-2.212c0,19.018,0.691,81.613,0.691,81.613l0,0
					c0.001,0.226,0.151,0.451,0.449,0.623c0.596,0.344,1.559,0.344,2.151,0c0.296-0.172,0.443-0.397,0.442-0.623l0,0
					C258.676,252.561,259.367,189.966,259.367,170.949z"/>
				<path style="fill:#E6E6E6;" d="M250.444,162.374h-4.424c-3.8,19.672-6.27,81.613-6.27,81.613l0,0
					c0.001,0.225,0.151,0.451,0.449,0.623c0.596,0.344,1.559,0.344,2.151,0c0.296-0.172,0.443-0.398,0.442-0.623l0,0
					C242.791,243.987,246.985,181.772,250.444,162.374z"/>
				<path style="fill:#E6E6E6;" d="M263.867,162.374h4.423c3.8,19.672,6.271,81.613,6.271,81.613l0,0
					c-0.001,0.225-0.151,0.451-0.449,0.623c-0.596,0.344-1.559,0.344-2.151,0c-0.296-0.172-0.443-0.398-0.442-0.623l0,0
					C271.52,243.987,267.326,181.772,263.867,162.374z"/>
			</g>
			<g>
				<path style="fill:#F0F0F0;" d="M280.948,161.811h-0.469c-0.896-2.589-3.081-5.059-6.555-7.066
					c-9.322-5.382-24.386-5.382-33.647,0c-3.452,2.006-5.609,4.477-6.476,7.065h-0.438v2.68l0,0c0.02,3.527,2.362,7.054,7.023,9.745
					c9.322,5.382,24.386,5.382,33.648,0c4.63-2.691,6.934-6.218,6.914-9.745h0V161.811z"/>
				<g>
					<path style="fill:#F5F5F5;" d="M273.924,152.065c9.322,5.382,9.371,14.108,0.11,19.49c-9.262,5.382-24.326,5.382-33.648,0
						c-9.322-5.382-9.371-14.108-0.109-19.49C249.538,146.684,264.603,146.683,273.924,152.065z"/>
				</g>
			</g>
		</g>
		<g>
			<g>
				<path style="fill:#EBEBEB;" d="M268.83,144.105h-11.674h-11.675c0,7.671,3.583,14.173,4.685,16.104
					c0.043,0.088,0.096,0.174,0.149,0.261c0.016,0.027,0.038,0.066,0.051,0.089l0.003-0.001c0.357,0.541,0.907,1.049,1.661,1.485
					c2.849,1.645,7.454,1.645,10.284,0c0.948-0.551,1.569-1.217,1.879-1.921C265.344,158.099,268.83,151.675,268.83,144.105z"/>
				<g>
					<path style="fill:#F5F5F5;" d="M265.384,139.323c4.574,2.641,4.598,6.923,0.054,9.563c-4.544,2.641-11.936,2.641-16.51,0
						c-4.574-2.641-4.598-6.922-0.054-9.563C253.418,136.683,260.81,136.682,265.384,139.323z"/>
				</g>
			</g>
			<g>
				<g>
					<path style="fill:#E0E0E0;" d="M255.892,141.089c-0.029-4.976-1.189-9.942-3.368-14.416c-0.686-1.409-1.488-2.825-1.594-4.389
						c-0.106-1.564,0.754-3.334,2.29-3.644c1.206-0.244,2.441,0.496,3.144,1.505c0.704,1.009,0.986,2.245,1.243,3.448
						c1.155,5.404,2.115,10.957,1.389,16.435c-0.078,0.591-0.129,1.31-0.377,1.852c-0.248,0.542-0.738,1.013-1.332,1.066
						c-0.39,0.034-0.793-0.124-1.056-0.415C255.969,142.24,255.894,141.48,255.892,141.089z"/>
					<g>
						<path style="fill:#FFFFFF;" d="M257.175,141.534c-0.006,0-0.011,0-0.016-0.001c-0.105-0.009-0.184-0.101-0.175-0.207
							c0.588-6.988-0.612-14.067-3.47-20.47c-0.043-0.097,0.001-0.21,0.097-0.253c0.097-0.042,0.21,0,0.253,0.097
							c2.884,6.463,4.094,13.607,3.501,20.659C257.357,141.458,257.273,141.534,257.175,141.534z"/>
					</g>
				</g>
				<g>
					<path style="fill:#EBEBEB;" d="M244.528,132.954c-1.03-0.636-2.2-1.322-2.513-2.492c-0.278-1.042,0.284-2.196,1.187-2.787
						c0.903-0.591,2.07-0.675,3.119-0.421c1.049,0.254,1.997,0.816,2.876,1.442c1.492,1.063,2.824,2.347,3.958,3.786
						c1.351,1.714,2.422,3.647,3.164,5.699c0.477,1.319,0.92,2.699,1.138,4.103c0.173,1.108,0.503,2.945-0.644,3.671
						c-0.498,0.315-1.169,0.263-1.681-0.027c-0.512-0.29-0.882-0.785-1.139-1.315c-0.257-0.53-0.415-1.101-0.602-1.659
						c-0.748-2.231-1.954-4.127-3.554-5.824C248.288,135.488,246.442,134.136,244.528,132.954z"/>
					<g>
						<path style="fill:#FFFFFF;" d="M256.312,144.62L256.312,144.62c-0.126,0.027-0.25-0.054-0.277-0.18
							c-1.391-6.585-6.01-12.516-12.053-15.48c-0.116-0.057-0.163-0.196-0.107-0.312c0.057-0.116,0.197-0.163,0.312-0.107
							c6.169,3.025,10.883,9.08,12.304,15.802C256.518,144.469,256.437,144.593,256.312,144.62z"/>
					</g>
				</g>
				<g>
					<path style="fill:#EBEBEB;" d="M267.377,130.575c0.836-0.876,1.794-1.836,1.8-3.047c0.005-1.079-0.831-2.053-1.854-2.396
						c-1.023-0.343-2.174-0.128-3.124,0.383c-0.95,0.511-1.725,1.295-2.417,2.123c-1.174,1.406-2.138,2.986-2.87,4.664
						c-0.873,2-1.42,4.141-1.618,6.315c-0.127,1.397-0.206,2.843-0.062,4.257c0.114,1.116,0.259,2.977,1.552,3.388
						c0.561,0.178,1.197-0.042,1.62-0.452c0.422-0.41,0.654-0.983,0.769-1.56c0.115-0.578,0.123-1.17,0.162-1.757
						c0.159-2.348,0.846-4.488,1.964-6.535C264.381,133.979,265.824,132.203,267.377,130.575z"/>
					<g>
						<path style="fill:#FFFFFF;" d="M258.931,144.845L258.931,144.845c0.129-0.006,0.228-0.115,0.222-0.244
							c-0.321-6.723,2.645-13.63,7.741-18.027c0.098-0.084,0.108-0.231,0.024-0.329c-0.084-0.098-0.231-0.108-0.329-0.024
							c-5.202,4.488-8.23,11.539-7.902,18.402C258.694,144.751,258.803,144.851,258.931,144.845z"/>
					</g>
				</g>
			</g>
		</g>
	</g>
</g>
<g id="Side_table">
	<g>
		<g>
			<polygon style="fill:#E6E6E6;" points="346.643,316.638 342.486,319.054 342.499,314.246 			"/>
			<polygon style="fill:#787878;" points="342.601,290.98 342.601,290.928 342.601,290.928 342.601,290.928 			"/>
			<rect x="362.823" y="279.252" style="fill:#CFCFCF;" width="0" height="46.702"/>
			<polygon style="fill:#CFCFCF;" points="342.667,267.585 383.112,290.935 383.112,290.935 			"/>
			<path style="fill:#EBEBEB;" d="M346.643,316.638l36.376,21.002l-0.013,4.808l4.329,2.5l0.16-56.505l-49.178-28.393l-0.16,56.505
				l4.329,2.5l0.013-4.808L346.643,316.638z M383.06,309.263l-40.445-23.351l0.052-18.328l40.445,23.351l0,0l0,0L383.06,309.263z
				 M382.994,332.602l-40.445-23.351l0.052-18.271l0-0.052l0,0l40.445,23.351l0,0l0,0L382.994,332.602z"/>
			<polygon style="fill:#F5F5F5;" points="342.549,309.251 342.601,290.98 342.601,290.928 383.046,314.279 383.046,314.279 
				382.994,332.602 			"/>
			<polygon style="fill:#F5F5F5;" points="342.615,285.913 342.667,267.585 383.112,290.935 383.112,290.935 383.06,309.263 			"/>
			<polygon style="fill:#E6E6E6;" points="387.495,288.442 430.428,263.492 430.268,319.997 387.335,344.947 			"/>
			<polygon style="fill:#F5F5F5;" points="387.495,288.442 338.317,260.049 381.25,235.099 430.428,263.492 			"/>
		</g>
	</g>
</g>
<g id="Plant">
	<path style="fill:#E0E0E0;" d="M395.86,255.69c-6.942-4.008-18.16-4.008-25.057,0c-6.897,4.008-6.861,10.506,0.081,14.514
		c6.942,4.008,18.161,4.008,25.058,0C402.839,266.196,402.802,259.698,395.86,255.69z"/>
	<g>
		<g>
			<path style="fill:#37474F;" d="M397.842,239.072l-13.983,0.407l-13.983-0.407c-0.602,9.443,1.241,19.066,3.783,23.766l0.01-0.001
				c0.455,1.032,1.37,2.01,2.768,2.817c4.126,2.382,10.793,2.382,14.892,0c1.421-0.826,2.335-1.831,2.766-2.89
				C396.618,258.039,398.441,248.468,397.842,239.072z"/>
			<g>
				<path style="fill:#455A64;" d="M393.714,233.345c5.479,3.163,5.508,8.291,0.065,11.454c-5.443,3.163-14.296,3.163-19.775,0
					c-5.478-3.163-5.507-8.291-0.064-11.454C379.383,230.182,388.236,230.182,393.714,233.345z"/>
			</g>
			<g>
				<path style="fill:#263238;" d="M391.548,234.604c4.274,2.468,4.297,6.469,0.051,8.936c-4.246,2.468-11.153,2.468-15.427,0
					c-4.274-2.468-4.297-6.468-0.05-8.936C380.367,232.137,387.274,232.137,391.548,234.604z"/>
			</g>
		</g>
		<g>
			<path style="fill:#BA68C8;" d="M382.693,239.467c2.347,1.924,5.492,2.637,8.201,1.865c2.703-0.77,4.904-2.998,5.748-5.812
				c-1.71-0.743-3.055-1.838-4.489-3.115c1.998-0.527,4.318-0.444,6.355,0.224c1.101-1.68,1.383-4.099,0.479-6.06
				c-2.411-1.058-5.18-1.255-7.581-0.524c2.125-1.84,4.825-2.695,7.665-2.416c0.279-6.871-1.841-11.775-1.841-11.775
				c-5.214,0.271-10.268,2.518-11.972,4.134c-0.289,2.085,0.577,5.538,0.577,5.538c-2.382-1.321-2.423-3.581-2.423-3.581
				c-3.262,0.816-4.657,2.445-5.166,3.687c0.24,2.042,2.125,5.457,3.088,6.257c-3.064-0.926-4.306-4.339-4.306-4.339
				C374.017,230.69,374.592,238.772,382.693,239.467z"/>
			<path style="opacity:0.2;" d="M382.693,239.467c2.347,1.924,5.492,2.637,8.201,1.865c2.703-0.77,4.904-2.998,5.748-5.812
				c-1.71-0.743-3.055-1.838-4.489-3.115c1.998-0.527,4.318-0.444,6.355,0.224c1.101-1.68,1.383-4.099,0.479-6.06
				c-2.411-1.058-5.18-1.255-7.581-0.524c2.125-1.84,4.825-2.695,7.665-2.416c0.279-6.871-1.841-11.775-1.841-11.775
				c-5.214,0.271-10.268,2.518-11.972,4.134c-0.289,2.085,0.577,5.538,0.577,5.538c-2.382-1.321-2.423-3.581-2.423-3.581
				c-3.262,0.816-4.657,2.445-5.166,3.687c0.24,2.042,2.125,5.457,3.088,6.257c-3.064-0.926-4.306-4.339-4.306-4.339
				C374.017,230.69,374.592,238.772,382.693,239.467z"/>
			<g>
				<path style="fill:#F5F5F5;" d="M382.51,240.241c-0.008,0-0.015,0-0.023-0.001c-0.166-0.013-0.29-0.157-0.278-0.323
					c0.498-6.583,4.265-17.451,13.245-26.416c0.118-0.117,0.308-0.118,0.426,0.001c0.118,0.118,0.118,0.308,0,0.426
					c-8.863,8.848-12.58,19.554-13.069,26.035C382.798,240.12,382.666,240.241,382.51,240.241z"/>
			</g>
		</g>
		<g>
			<path style="fill:#BA68C8;" d="M384.974,242.99c-2.082,1.699-4.991,2.33-7.59,1.646c-2.598-0.683-4.821-2.664-5.798-5.167
				c1.573-0.656,2.777-1.626,4.052-2.756c-1.923-0.476-4.115-0.411-6.006,0.177c-1.154-1.502-1.576-3.661-0.841-5.406
				c2.224-0.93,4.838-1.089,7.155-0.423c-2.126-1.651-4.741-2.432-7.423-2.202c-0.705-6.145,1.002-10.512,1.002-10.512
				c4.969,0.301,9.889,2.359,11.595,3.815c0.402,1.857-0.201,4.919-0.201,4.919c2.158-1.155,2.058-3.162,2.058-3.162
				c3.112,0.753,4.518,2.209,5.07,3.313c-0.1,1.807-1.656,4.819-2.51,5.521c2.811-0.803,3.765-3.815,3.765-3.815
				C392.541,235.263,392.491,242.385,384.974,242.99z"/>
			<g>
				<path style="fill:#FFFFFF;" d="M385.173,243.709c-0.146,0-0.275-0.107-0.297-0.257c-0.855-5.732-5.021-15.247-13.945-23.198
					c-0.124-0.111-0.135-0.301-0.024-0.425c0.11-0.124,0.3-0.135,0.425-0.025c9.044,8.058,13.269,17.727,14.139,23.559
					c0.025,0.165-0.089,0.318-0.253,0.342C385.203,243.708,385.188,243.709,385.173,243.709z"/>
			</g>
		</g>
	</g>
</g>
<g id="Device">
	<g>
		<g>
			<g>
				<path style="fill:#455A64;" d="M196.033,49.369l0.008-0.007c-0.781-2.739-6.342-7.947-11.876-7.838
					c-0.2-0.002-1.195,0.1-1.554,0.305l-107.5,61.16c-1.827,1.04-3.239,2.602-4.132,4.427c-0.678,1.384-1.066,2.916-1.066,4.51
					v232.531c0,5.923,6.83,11.576,13.243,8.857c0.016-0.007,0.027-0.023,0.043-0.03c0.138-0.05,0.278-0.09,0.412-0.166
					l107.505-61.262c3.21-1.829,5.192-5.24,5.192-8.934V50.49C196.308,50.076,196.197,49.704,196.033,49.369z"/>
				<path style="fill:#BA68C8;" d="M84.91,136.505c0-1.849,0.992-3.555,2.599-4.469l99.815-56.788
					c1.714-0.975,3.842,0.263,3.842,2.234v187.504c0,1.843-0.995,3.555-2.597,4.469l-99.816,56.879
					c-1.714,0.977-3.843-0.261-3.843-2.234V136.505z"/>
				<path style="opacity:0.2;" d="M84.91,136.505c0-1.849,0.992-3.555,2.599-4.469l99.815-56.788
					c1.714-0.975,3.842,0.263,3.842,2.234v187.504c0,1.843-0.995,3.555-2.597,4.469l-99.816,56.879
					c-1.714,0.977-3.843-0.261-3.843-2.234V136.505z"/>
				<path style="opacity:0.3;" d="M69.913,111.927v232.531c0,5.923,6.83,11.576,13.243,8.857c0.016-0.007,0.027-0.023,0.043-0.03
					c-1.625,0.589-3.431-0.582-3.431-2.4V118.353c0-2.06,0.634-4.02,1.736-5.679l-10.525-5.258
					C70.301,108.801,69.913,110.332,69.913,111.927z"/>
				<path style="opacity:0.1;fill:#FFFFFF;" d="M184.166,41.524c-0.2-0.002-1.195,0.1-1.554,0.305l-107.5,61.16
					c-1.827,1.04-3.239,2.602-4.132,4.427l10.525,5.258c0.875-1.317,2.039-2.45,3.462-3.259l107.5-61.161
					c1.354-0.771,2.95-0.149,3.568,1.114l0.008-0.007C195.261,46.622,189.7,41.415,184.166,41.524z"/>
				<g>
					<g>
						<g>
							<path style="fill:#263238;" d="M151.287,86.653c0.755-0.436,1.381-0.098,1.383,0.769c0.002,0.868-0.619,1.944-1.375,2.38
								l-21.091,12.177c-0.755,0.436-1.364,0.07-1.367-0.798c-0.002-0.867,0.603-1.916,1.358-2.352L151.287,86.653z"/>
						</g>
						<g>
							<path style="fill:#263238;" d="M124.779,101.957c0.755-0.436,1.364-0.089,1.367,0.779c0.002,0.868-0.603,1.935-1.358,2.371
								c-0.755,0.436-1.381,0.079-1.383-0.788C123.403,103.451,124.024,102.393,124.779,101.957z"/>
						</g>
					</g>
					<g>
						<path style="fill:#263238;" d="M138.28,84.882c1.508-0.871,2.726-0.177,2.73,1.556s-1.204,3.865-2.713,4.736
							c-1.508,0.871-2.758,0.158-2.763-1.575C135.529,87.866,136.771,85.753,138.28,84.882z"/>
					</g>
					<g>
						<path style="fill:#263238;" d="M138.288,303.791c3.072-1.774,5.551-0.361,5.561,3.169c0.01,3.53-2.453,7.874-5.525,9.647
							c-3.072,1.774-5.618,0.323-5.628-3.208C132.686,309.869,135.215,305.564,138.288,303.791z"/>
					</g>
				</g>
			</g>
		</g>
	</g>
</g>
<g id="Screen">
	<g>
		<g>
			<g>
				<g>
					<path style="fill:#BA68C8;" d="M215.711,89.259l0.007-0.007c-0.708-2.486-5.756-7.214-10.78-7.114
						c-0.182-0.001-1.085,0.091-1.411,0.276l-97.577,55.515c-1.659,0.944-2.939,2.361-3.751,4.019
						c-0.615,1.257-0.968,2.647-0.968,4.094v211.066c0,5.377,6.2,10.507,12.02,8.039c0.015-0.006,0.025-0.021,0.039-0.027
						c0.126-0.045,0.252-0.081,0.374-0.151l97.581-55.607c2.913-1.66,4.713-4.756,4.713-8.11V90.276
						C215.96,89.901,215.86,89.564,215.711,89.259z"/>
					<path style="opacity:0.2;fill:#FFFFFF;" d="M101.233,146.042v211.066c0,5.377,6.2,10.507,12.02,8.039
						c0.015-0.006,0.025-0.021,0.039-0.027c-1.475,0.534-3.115-0.528-3.115-2.178V151.876c0-1.87,0.576-3.649,1.576-5.154
						l-9.553-4.773C101.585,143.205,101.233,144.595,101.233,146.042z"/>
					<path style="opacity:0.4;fill:#FFFFFF;" d="M204.939,82.138c-0.182-0.001-1.085,0.091-1.411,0.276l-97.577,55.515
						c-1.659,0.944-2.939,2.361-3.751,4.019l9.553,4.773c0.795-1.196,1.851-2.223,3.142-2.958l97.577-55.515
						c1.229-0.699,2.678-0.135,3.238,1.011l0.007-0.007C215.01,86.766,209.962,82.039,204.939,82.138z"/>
				</g>
				<path style="opacity:0.3;fill:#FFFFFF;" d="M215.711,89.259l0.007-0.007c-0.708-2.486-5.756-7.213-10.78-7.114
					c-0.182-0.001-1.085,0.091-1.411,0.276l-97.577,55.515c-1.659,0.944-2.939,2.362-3.751,4.019
					c-0.615,1.257-0.968,2.647-0.968,4.094v211.066c0,5.377,6.2,10.507,12.02,8.039c0.015-0.006,0.025-0.021,0.039-0.027
					c0.126-0.046,0.252-0.081,0.374-0.151l97.581-55.607c2.913-1.66,4.713-4.756,4.713-8.109V90.276
					C215.96,89.901,215.86,89.564,215.711,89.259z"/>
			</g>
			<g>
				<g>
					<path style="fill:#BA68C8;" d="M181.736,113.356c0.932-0.538,1.698-0.11,1.701,0.969l0.029,10.285
						c0.003,1.079-0.758,2.389-1.69,2.927l-63.513,36.628c-0.939,0.542-1.698,0.11-1.701-0.969l-0.029-10.285
						c-0.003-1.079,0.751-2.385,1.69-2.927L181.736,113.356z"/>
				</g>
				<g style="opacity:0.7;">
					<path style="fill:#FFFFFF;" d="M181.736,113.356c0.932-0.538,1.698-0.11,1.701,0.969l0.029,10.285
						c0.003,1.079-0.758,2.389-1.69,2.927l-63.513,36.628c-0.939,0.542-1.698,0.11-1.701-0.969l-0.029-10.285
						c-0.003-1.079,0.751-2.385,1.69-2.927L181.736,113.356z"/>
				</g>
			</g>
			<g style="opacity:0.5;">
				<path style="fill:#FFFFFF;" d="M207.049,102.46c2.18-1.259,3.952-0.253,3.96,2.252c0.003,0.924-0.239,1.924-0.65,2.88
					l0.663,1.651l-1.69,0.157c-0.638,0.885-1.416,1.636-2.257,2.121c-2.176,1.257-3.949,0.246-3.956-2.254
					C203.112,106.762,204.873,103.716,207.049,102.46z"/>
			</g>
			<g style="opacity:0.5;">
				<g>
					<path style="fill:#FFFFFF;" d="M192.634,117.923c0.498-0.288,0.906-0.06,0.908,0.513c0.002,0.577-0.404,1.274-0.902,1.562
						c-0.498,0.288-0.902,0.057-0.904-0.52C191.735,118.905,192.136,118.21,192.634,117.923z"/>
				</g>
				<g>
					<path style="fill:#FFFFFF;" d="M197.129,115.328c0.502-0.29,0.906-0.06,0.908,0.513c0.002,0.577-0.4,1.272-0.902,1.562
						c-0.498,0.288-0.902,0.057-0.904-0.52C196.23,116.31,196.631,115.615,197.129,115.328z"/>
				</g>
				<g>
					<polygon style="fill:#FFFFFF;" points="199.014,107.26 198.34,114.208 191.425,118.2 190.709,112.055 					"/>
				</g>
			</g>
		</g>
		<g>
			<g>
				<path style="fill:#BA68C8;" d="M116.938,246.963c0-1.626,0.873-3.127,2.287-3.932l87.804-49.954
					c1.508-0.858,3.38,0.231,3.38,1.965v42.344c0,1.621-0.876,3.127-2.285,3.931l-87.805,50.035
					c-1.507,0.859-3.381-0.23-3.381-1.965V246.963z"/>
				<path style="opacity:0.5;fill:#FFFFFF;" d="M116.938,246.963c0-1.626,0.873-3.127,2.287-3.932l87.804-49.954
					c1.508-0.858,3.38,0.231,3.38,1.965v42.344c0,1.621-0.876,3.127-2.285,3.931l-87.805,50.035
					c-1.507,0.859-3.381-0.23-3.381-1.965V246.963z"/>
			</g>
			<g>
				<polygon style="fill:#BA68C8;" points="155.129,228.035 155.24,267.011 121.321,286.594 121.21,247.618 				"/>
			</g>
			<g style="opacity:0.2;">
				<polygon style="fill:#FFFFFF;" points="155.129,228.035 155.24,267.011 121.321,286.594 121.21,247.618 				"/>
			</g>
			<g style="opacity:0.6;enable-background:new    ;">
				<g>
					<polygon style="fill:#FFFFFF;" points="177.433,231.343 177.439,233.806 159.028,244.408 159.021,241.945 					"/>
				</g>
				<g>
					<polygon style="fill:#FFFFFF;" points="200.003,214.166 200.01,216.629 159.017,240.296 159.01,237.834 					"/>
				</g>
				<g>
					<polygon style="fill:#FFFFFF;" points="184.499,247.683 184.506,250.146 159.028,264.769 159.021,262.306 					"/>
				</g>
				<g>
					<polygon style="fill:#FFFFFF;" points="190.812,239.719 190.819,242.182 159.017,260.658 159.01,258.195 					"/>
				</g>
				<g>
					<polygon style="fill:#FFFFFF;" points="199.991,210.048 199.998,212.511 159.005,236.178 158.998,233.715 					"/>
				</g>
				<g>
					<polygon style="fill:#FFFFFF;" points="181.044,214.065 181.054,217.611 158.988,230.351 158.978,226.805 					"/>
				</g>
			</g>
			<g>
				<g style="enable-background:new    ;">
					<g>
						<path style="fill:#E0E0E0;" d="M134.103,268.696c1.427,0.283,3.145-0.063,4.991-1.129c1.844-1.065,3.556-2.697,4.975-4.62
							l0.025,8.79l-9.966,5.754L134.103,268.696z"/>
					</g>
					<g>
						<path style="fill:#FFFFFF;" d="M144.021,245.936c2.382,0.469,3.955,2.689,3.965,6.23c0.01,3.542-1.545,7.567-3.917,10.781
							c-1.419,1.923-3.131,3.555-4.975,4.62c-1.847,1.066-3.565,1.412-4.991,1.129c-2.379-0.472-3.948-2.69-3.958-6.229
							c-0.01-3.539,1.542-7.56,3.91-10.772c1.42-1.926,3.135-3.562,4.981-4.629C140.88,246.001,142.595,245.655,144.021,245.936z
							 M139.087,265.073c3.728-2.152,6.741-7.37,6.729-11.654c-0.012-4.284-3.044-6.019-6.773-3.867
							c-3.728,2.152-6.747,7.382-6.735,11.665C132.32,265.501,135.359,267.225,139.087,265.073"/>
					</g>
				</g>
				<g>
					<path style="fill:#E0E0E0;" d="M139.043,249.552c3.728-2.152,6.76-0.417,6.772,3.867c0.012,4.284-3,9.502-6.728,11.654
						c-3.728,2.152-6.767,0.428-6.779-3.855C132.296,256.934,135.315,251.704,139.043,249.552z"/>
				</g>
				<g>
					<path style="fill:#E0E0E0;" d="M134.03,242.892l9.966-5.754l0.025,8.798c-1.425-0.281-3.14,0.065-4.984,1.13
						c-1.847,1.066-3.561,2.702-4.981,4.629L134.03,242.892z"/>
				</g>
			</g>
		</g>
		<g>
			<g>
				<path style="fill:#BA68C8;" d="M116.938,190.713c0-1.626,0.873-3.127,2.287-3.932l87.804-49.954
					c1.508-0.858,3.38,0.231,3.38,1.965v42.344c0,1.621-0.876,3.127-2.285,3.931l-87.805,50.035
					c-1.507,0.859-3.381-0.23-3.381-1.965V190.713z"/>
				<path style="opacity:0.1;" d="M116.938,190.713c0-1.626,0.873-3.127,2.287-3.932l87.804-49.954
					c1.508-0.858,3.38,0.231,3.38,1.965v42.344c0,1.621-0.876,3.127-2.285,3.931l-87.805,50.035
					c-1.507,0.859-3.381-0.23-3.381-1.965V190.713z"/>
			</g>
		</g>
		<g>
			<g>
				<path style="fill:#BA68C8;" d="M116.938,301.919c0-1.626,0.873-3.127,2.287-3.931l87.804-49.954
					c1.508-0.858,3.38,0.231,3.38,1.965v42.344c0,1.621-0.876,3.127-2.285,3.931l-87.805,50.035
					c-1.507,0.859-3.381-0.229-3.381-1.965V301.919z"/>
				<path style="opacity:0.5;fill:#FFFFFF;" d="M116.938,301.919c0-1.626,0.873-3.127,2.287-3.931l87.804-49.954
					c1.508-0.858,3.38,0.231,3.38,1.965v42.344c0,1.621-0.876,3.127-2.285,3.931l-87.805,50.035
					c-1.507,0.859-3.381-0.229-3.381-1.965V301.919z"/>
			</g>
			<g>
				<polygon style="fill:#BA68C8;" points="155.129,282.992 155.24,321.967 121.321,341.55 121.21,302.575 				"/>
			</g>
			<g style="opacity:0.2;">
				<polygon style="fill:#FFFFFF;" points="155.129,282.992 155.24,321.967 121.321,341.55 121.21,302.575 				"/>
			</g>
			<g style="opacity:0.6;enable-background:new    ;">
				<g>
					<polygon style="fill:#FFFFFF;" points="177.433,286.299 177.439,288.762 159.028,299.364 159.021,296.901 					"/>
				</g>
				<g>
					<polygon style="fill:#FFFFFF;" points="200.003,269.123 200.01,271.585 159.017,295.253 159.01,292.79 					"/>
				</g>
				<g>
					<polygon style="fill:#FFFFFF;" points="184.499,302.64 184.506,305.103 159.028,319.726 159.021,317.263 					"/>
				</g>
				<g>
					<polygon style="fill:#FFFFFF;" points="190.812,294.676 190.819,297.138 159.017,315.614 159.01,313.151 					"/>
				</g>
				<g>
					<polygon style="fill:#FFFFFF;" points="199.991,265.004 199.998,267.467 159.005,291.134 158.998,288.672 					"/>
				</g>
				<g>
					<polygon style="fill:#FFFFFF;" points="181.044,269.021 181.054,272.567 158.988,285.307 158.978,281.761 					"/>
				</g>
			</g>
			<g>
				<g>
					<path style="fill:#E0E0E0;" d="M149.416,300.8c0.731-0.422,1.292,0.009,1.182,0.902l-1.931,15.872
						c-0.179,1.446-1.176,3.012-2.359,3.695l-15.316,8.843c-1.177,0.68-2.18,0.269-2.367-0.966l-2.02-13.591
						c-0.11-0.766,0.447-1.842,1.178-2.264l4.58-2.644l0.009,3.2l1.193-0.689l-0.009-3.2l10.08-5.82l0.009,3.2l1.199-0.692
						l-0.009-3.2L149.416,300.8z"/>
				</g>
				<g>
					<path style="fill:#FFFFFF;" d="M138.575,298.316c3.435-1.983,6.245-0.388,6.256,3.565l0.005,1.563l0.009,3.2l-1.199,0.692
						l-0.009-3.2l-0.004-1.563c-0.009-3.194-2.274-4.491-5.054-2.886c-2.779,1.605-5.035,5.512-5.026,8.706l0.004,1.563l0.009,3.2
						l-1.193,0.689l-0.009-3.2l-0.005-1.563C132.348,305.129,135.135,300.302,138.575,298.316z"/>
				</g>
			</g>
		</g>
		<g>
			<g>
				<path style="fill:#BA68C8;" d="M124.752,197.702c0-1.849,0.992-3.555,2.599-4.469l99.815-56.787
					c1.714-0.975,3.842,0.263,3.842,2.234v48.136c0,1.843-0.995,3.555-2.597,4.469l-99.816,56.879
					c-1.714,0.977-3.843-0.261-3.843-2.234V197.702z"/>
				<path style="opacity:0.6;fill:#FFFFFF;" d="M124.752,197.702c0-1.849,0.992-3.555,2.599-4.469l99.815-56.787
					c1.714-0.975,3.842,0.263,3.842,2.234v48.136c0,1.843-0.995,3.555-2.597,4.469l-99.816,56.879
					c-1.714,0.977-3.843-0.261-3.843-2.234V197.702z"/>
			</g>
			<g>
				<polygon style="fill:#BA68C8;" points="168.168,176.186 168.294,220.492 129.735,242.754 129.609,198.447 				"/>
			</g>
			<g style="opacity:0.2;">
				<polygon style="fill:#FFFFFF;" points="168.168,176.186 168.294,220.492 129.735,242.754 129.609,198.447 				"/>
			</g>
			<g>
				<g>
					<path style="fill:#E0E0E0;" d="M160.715,190.04l0.025,8.736c0.004,1.515-1.064,3.357-2.376,4.115
						c-1.318,0.761-2.387,0.152-2.391-1.363l-0.024-8.499C157.513,192.049,159.217,190.966,160.715,190.04z"/>
				</g>
				<g>
					<path style="fill:#E0E0E0;" d="M164.926,205.331c-0.133,2.345-0.613,4.936-1.186,7.213l-6.637,3.832
						c0.188-1.901,0.369-3.807,0.551-5.704c-2.438,3.354-5.129,6.501-7.955,9.267c-1.217,1.185-2.508,2.161-3.793,2.902
						l-12.429,7.176c-0.254-0.175-0.408-0.508-0.483-0.924l12.462-7.195c1.158-0.669,2.303-1.521,3.407-2.542
						c3.166-2.931,6.297-6.103,9.42-10.189L164.926,205.331z"/>
				</g>
				<g>
					<path style="fill:#FFFFFF;" d="M162.559,188.922c0.144,1.457,0.413,6.872,0.743,8.099c0.337,1.254,0.747,2.442,1.191,3.672
						c0.437,1.226,0.535,2.863,0.433,4.638l-6.644,3.836c-3.122,4.086-6.254,7.258-9.42,10.189
						c-1.104,1.021-2.248,1.873-3.407,2.542l-12.462,7.195c-0.203-1.139,0.198-2.934,0.935-4.149
						c1.015-1.674,2.379-2.753,3.663-3.877c1.696-1.477,3.345-3.15,4.934-4.986c4.22-4.873,9.102-11.76,10.728-21.403
						c0.772-0.454,1.704-1.03,2.696-1.648l0.024,8.499c0.004,1.515,1.073,2.124,2.391,1.363c1.312-0.757,2.38-2.6,2.376-4.115
						l-0.025-8.736C161.38,189.625,162.013,189.237,162.559,188.922z"/>
				</g>
			</g>
			<g style="opacity:0.6;enable-background:new    ;">
				<g>
					<polygon style="fill:#FFFFFF;" points="193.522,179.945 193.53,182.745 172.6,194.798 172.593,191.998 					"/>
				</g>
				<g>
					<polygon style="fill:#FFFFFF;" points="219.18,160.419 219.188,163.219 172.587,190.124 172.579,187.324 					"/>
				</g>
				<g>
					<polygon style="fill:#FFFFFF;" points="201.556,198.521 201.564,201.321 172.6,217.944 172.593,215.144 					"/>
				</g>
				<g>
					<polygon style="fill:#FFFFFF;" points="208.731,189.467 208.739,192.267 172.587,213.27 172.579,210.47 					"/>
				</g>
				<g>
					<polygon style="fill:#FFFFFF;" points="219.166,155.738 219.174,158.537 172.574,185.442 172.566,182.642 					"/>
				</g>
				<g>
					<polygon style="fill:#FFFFFF;" points="197.628,160.304 197.639,164.335 172.555,178.818 172.544,174.786 					"/>
				</g>
			</g>
		</g>
		<g style="opacity:0.8;">
			<g>
				<g>
					<polygon style="fill:#FFFFFF;" points="131.942,163.409 129.187,174.851 126.597,176.346 124.936,171.312 123.245,178.281 
						120.646,179.782 117.844,171.548 120.333,170.111 122.078,175.393 123.869,168.07 126.101,166.781 127.845,172.127 
						129.627,164.745 					"/>
				</g>
				<g>
					<polygon style="fill:#FFFFFF;" points="135.239,161.505 135.267,171.341 132.842,172.74 132.814,162.905 					"/>
				</g>
				<g>
					<path style="fill:#FFFFFF;" d="M140.308,158.378c1.111-0.642,2.26-1.009,3.107-0.937l-0.738,2.498
						c-0.819-0.035-1.628,0.179-2.372,0.608c-1.019,0.589-1.386,1.191-1.384,1.687c0.004,1.509,4.859-2.425,4.87,1.205
						c0.005,1.71-1.24,3.898-3.784,5.366c-1.405,0.811-2.802,1.185-3.612,0.997l0.784-2.503c0.764,0.14,1.84-0.09,2.831-0.662
						c1.01-0.583,1.395-1.133,1.394-1.608c-0.005-1.562-4.869,2.388-4.879-1.274C136.519,162.003,137.764,159.847,140.308,158.378z"
						/>
				</g>
				<g>
					<polygon style="fill:#FFFFFF;" points="153.037,151.229 153.065,161.065 150.641,162.464 150.63,158.634 147.333,160.537 
						147.343,164.368 144.919,165.768 144.891,155.932 147.316,154.533 147.326,158.226 150.623,156.323 150.613,152.629 					"/>
				</g>
				<g>
					<polygon style="fill:#FFFFFF;" points="157.179,148.838 157.201,156.468 161.288,154.108 161.294,156.314 154.783,160.073 
						154.755,150.238 					"/>
				</g>
				<g>
					<polygon style="fill:#FFFFFF;" points="164.655,144.522 164.683,154.357 162.258,155.757 162.23,145.922 					"/>
				</g>
				<g>
					<path style="fill:#FFFFFF;" d="M169.715,141.4c1.12-0.647,2.269-1.014,3.116-0.943l-0.738,2.498
						c-0.828-0.029-1.637,0.184-2.381,0.613c-1.01,0.583-1.376,1.186-1.375,1.682c0.004,1.509,4.859-2.425,4.87,1.205
						c0.005,1.71-1.24,3.897-3.784,5.366c-1.414,0.817-2.811,1.19-3.622,1.002l0.793-2.508c0.764,0.14,1.84-0.09,2.831-0.662
						c1.001-0.578,1.395-1.133,1.394-1.608c-0.004-1.562-4.878,2.393-4.888-1.269C165.926,145.025,167.171,142.868,169.715,141.4z"
						/>
				</g>
				<g>
					<polygon style="fill:#FFFFFF;" points="181.048,135.057 181.054,137.263 178.428,138.779 178.449,146.409 176.034,147.804 
						176.012,140.174 173.377,141.695 173.37,139.49 					"/>
				</g>
			</g>
			<g>
				<polygon style="fill:#FFFFFF;" points="211.551,118.873 211.562,122.905 186.478,137.387 186.466,133.356 				"/>
			</g>
			<g>
				<polygon style="fill:#FFFFFF;" points="204.996,128.13 205.008,132.162 186.478,142.861 186.466,138.83 				"/>
			</g>
		</g>
	</g>
</g>
<g id="Character">
	<g>
		<g>
			<path style="fill:#263238;" d="M265.148,428.298c-0.741,1.554-3.089,2.989-5.66,3.413c-2.571,0.424-5.186-0.133-7.767-0.493
				c-3.836-0.535-7.733-0.635-11.592-0.296c-2.403,0.211-4.802,0.591-7.213,0.516c-2.411-0.076-4.889-0.652-6.781-2.149
				c-1.342-1.062-2.307-2.656-2.545-4.326c-0.314,2.177,0.801,4.454,2.545,5.835c1.892,1.497,4.37,2.073,6.781,2.148
				c2.411,0.076,4.81-0.305,7.213-0.515c3.859-0.338,7.756-0.239,11.592,0.296c2.581,0.36,5.379,1.1,7.95,0.676
				c2.571-0.424,4.92-1.859,5.66-3.413L265.148,428.298z"/>
			<g>
				<path style="fill:#FFFFFF;" d="M237.01,423.713c2.163,0,1.368-3.201,3.426-5.346c-0.837,0.048-1.678,0.063-2.519,0.06
					C236.068,421.092,235.549,423.713,237.01,423.713z"/>
				<path style="fill:#FFFFFF;" d="M241.504,423.546c2.175,0,1.604-3.816,3.742-6.041c-0.487,0.167-0.982,0.314-1.481,0.426
					c-0.426,0.096-0.855,0.169-1.286,0.232C240.573,420.861,240.025,423.546,241.504,423.546z"/>
				<path style="fill:#455A64;" d="M262.912,416.231c-0.146-0.705-0.546-1.333-1.125-1.762l-11.689-0.291
					c-1.195,1.596-2.953,2.673-4.852,3.327c-2.138,2.225-1.567,6.041-3.742,6.041c-1.479,0-0.93-2.685,0.975-5.383
					c-0.677,0.1-1.358,0.165-2.042,0.204c-2.058,2.145-1.263,5.346-3.426,5.346c-1.461,0-0.943-2.621,0.907-5.285
					c-0.546-0.002-1.092-0.008-1.637-0.016c-0.495-0.007-0.995-0.041-1.495-0.082c-4.298,3.399-4.664,7.087-4.109,12.874
					c0.741,0.132,1.493,0.211,2.24,0.234c2.411,0.076,4.81-0.305,7.213-0.516c3.859-0.339,7.756-0.239,11.592,0.296
					c2.581,0.36,5.196,0.917,7.767,0.493c2.571-0.424,4.92-1.859,5.66-3.413L262.912,416.231z"/>
				<path style="fill:#FFFFFF;" d="M234.785,418.329c-1.965-0.16-3.954-0.462-5.844-0.001c-2.371,0.579-4.641,2.216-5.259,4.578
					c-0.178,0.678-0.19,1.373-0.092,2.057c0.238,1.669,1.203,3.264,2.545,4.326c1.305,1.033,2.892,1.62,4.541,1.914
					C230.121,425.417,230.487,421.728,234.785,418.329z"/>
			</g>
			<path style="fill:#9C5A5A;" d="M249.764,410.847v5.632c0,1.278,1.036,2.314,2.314,2.314h5.893c2.048,0,3.728-1.625,3.795-3.672
				l0.14-4.273H249.764z"/>
		</g>
		<g>
			<path style="fill:#263238;" d="M288.717,408.343c-0.703,1.407-1.98,2.357-3.546,2.483c-1.535,0.123-3.187-0.278-4.488-1.104
				c-2.028-1.287-2.818-3.314-4.201-5.139c-1.379-1.821-3.146-3.308-4.888-4.773c-1.84-1.548-3.686-3.222-4.671-5.416
				c-0.28-0.622-0.461-1.299-0.553-1.986c-0.179,1.271,0.025,2.634,0.553,3.811c0.985,2.194,2.831,3.867,4.671,5.416
				c1.742,1.465,3.509,2.953,4.888,4.773c1.383,1.825,2.173,3.852,4.201,5.139c1.301,0.826,2.953,1.227,4.488,1.104
				c1.567-0.126,2.844-1.075,3.546-2.483c0.241-0.484,0.253-1.917,0.213-3.139C288.902,407.609,288.839,408.098,288.717,408.343z"/>
			<g>
				<path style="fill:#FFFFFF;" d="M275.436,395.982c-0.167,0.293-0.354,0.633-0.285,0.963c0.069,0.33,0.32,0.616,0.639,0.727
					c0.447,0.155,0.952-0.035,1.314-0.34c0.362-0.305,0.62-0.713,0.912-1.085c0.775-0.989,1.829-1.758,3.008-2.194
					c0.577-0.214,1.184-0.345,1.798-0.397c-0.487-0.444-0.974-0.889-1.462-1.333c-0.919,0.057-1.83,0.263-2.664,0.654
					C277.335,393.613,276.18,394.678,275.436,395.982z"/>
				<path style="fill:#FFFFFF;" d="M275.747,391.336c-1.36,0.636-2.515,1.702-3.259,3.005c-0.167,0.293-0.354,0.633-0.285,0.963
					c0.069,0.33,0.32,0.616,0.639,0.727c0.447,0.155,0.952-0.035,1.314-0.34c0.362-0.305,0.62-0.712,0.912-1.085
					c0.775-0.989,1.829-1.758,3.007-2.194c0.94-0.348,1.956-0.474,2.954-0.39c-0.482-0.439-0.964-0.879-1.445-1.318
					C278.278,390.575,276.938,390.779,275.747,391.336z"/>
				<path style="fill:#FFFFFF;" d="M278.662,389.873c-1.392-1.238-2.858-2.408-4.589-3.066c-2.094-0.796-4.692-0.682-6.307,0.871
					c-1.242,1.194-1.632,2.996-1.397,4.73c0.093,0.686,0.274,1.363,0.553,1.986c0.374,0.834,0.874,1.592,1.449,2.297
					C268.933,391.657,273.303,389.3,278.662,389.873z"/>
				<path style="fill:#455A64;" d="M288.834,403.406c-0.131-1.803-0.227-3.362-1.144-4.921l-2.842-2.981
					c-0.676-0.616-1.351-1.232-2.027-1.848c-0.613,0.052-1.221,0.183-1.798,0.397c-1.179,0.436-2.232,1.205-3.008,2.194
					c-0.292,0.372-0.549,0.78-0.912,1.085c-0.362,0.305-0.867,0.495-1.314,0.34c-0.319-0.111-0.57-0.397-0.639-0.727
					c-0.069-0.33,0.118-0.67,0.285-0.963c0.744-1.304,1.899-2.369,3.259-3.005c0.834-0.391,1.745-0.597,2.664-0.654
					c-0.11-0.1-0.219-0.2-0.329-0.3c-0.999-0.084-2.014,0.042-2.954,0.39c-1.179,0.436-2.232,1.205-3.007,2.194
					c-0.292,0.373-0.55,0.78-0.912,1.085c-0.362,0.305-0.867,0.496-1.314,0.34c-0.319-0.111-0.57-0.397-0.639-0.727
					c-0.069-0.33,0.118-0.67,0.285-0.963c0.744-1.304,1.899-2.369,3.259-3.005c1.19-0.557,2.53-0.761,3.837-0.632
					c-0.018-0.016-0.036-0.033-0.053-0.049c-0.287-0.262-0.577-0.523-0.869-0.783c-5.359-0.572-9.729,1.784-10.29,6.818
					c0.939,1.15,2.081,2.159,3.221,3.119c1.742,1.465,3.509,2.953,4.888,4.773c1.383,1.825,2.173,3.852,4.201,5.139
					c1.301,0.826,2.953,1.227,4.488,1.104c1.567-0.126,2.844-1.075,3.546-2.483c0.122-0.245,0.185-0.734,0.213-1.314
					C288.992,405.711,288.871,403.918,288.834,403.406z"/>
			</g>
			<path style="fill:#9C5A5A;" d="M278.577,394.504l0.334,6.043c3.815,2.2,7.825,1.002,9.162-0.39l0.251-5.653H278.577z"/>
		</g>
		<path style="fill:#9C5A5A;" d="M286.092,263.871c-0.323-0.65-0.532-1.352-0.578-2.081l-0.325-5.185l-36.96,2.373
			c-0.489,2.593-0.984,5.768-1.467,9.364C259.813,271.815,274.148,270.165,286.092,263.871z"/>
		<path style="fill:#9C5A5A;" d="M285.369,242.942l7.874,15.208l-7.15,11.976l7.905,12.508l11.942-18.537
			c1.636-2.539,2.066-5.663,1.221-8.562c-3.778-12.961-7.758-21.114-7.758-21.114L285.369,242.942z"/>
		<path style="fill:#BA68C8;" d="M279.113,213.564c9.06-1.686,14.237,1.335,21.896,21.828c-3.128,7.011-16.395,9.599-16.395,9.599
			L279.113,213.564z"/>
		<path style="opacity:0.3;" d="M279.113,213.564c9.06-1.686,14.237,1.335,21.896,21.828c-3.128,7.011-16.395,9.599-16.395,9.599
			L279.113,213.564z"/>
		<path style="fill:#BA68C8;" d="M262.146,215.973l-9.89,1.945c-2.186,4-4.414,7.757-6.599,11.757
			c-1.647,3.013-3.341,6.217-3.216,9.648c0.133,3.652,2.547,7.124,5.924,8.522l-1.142,13.505c15.532,4.746,34.515,0.575,38.686-3.02
			c1.227-5.66,2.312-11.678,3.539-17.338c0.797-3.677,1.597-7.382,1.673-11.144c0.077-3.762-0.616-7.628-2.611-10.819
			c-0.02-0.032-0.04-0.064-0.06-0.095c-2.564-4.024-7.427-5.96-12.139-5.212L262.146,215.973z"/>
		<path style="fill:#455A64;" d="M286.665,264.816c-0.225-0.295-0.409-0.616-0.573-0.946c-11.944,6.294-26.279,7.944-39.33,4.471
			c-2.787,20.735-5.181,55.846-3.71,79.009c1.222,26.965,6.184,65.147,6.184,65.147c6.472,1.941,11.325,0.755,13.159-0.647
			c2.157-26.749,6.903-45.085,3.236-62.774c2.445-12.368,4.027-27.9,4.027-27.9l1.87,27.324l6.327,48.034
			c6.184,3.164,11.362-0.575,11.362-0.575c4.602-27.468,6.328-46.081,2.301-59.713C297.661,291.172,297.975,279.64,286.665,264.816z
			"/>
		<path style="opacity:0.3;" d="M272.378,315.776l3.391-14.23c3.955-0.647,10.139-3.236,13.388-8.662
			c-4.648,3.602-10.528,5.785-16.409,5.785l-3.092,22.507l0.658,9.618l0.265-3.5C270.875,323.414,271.477,319.562,272.378,315.776z"
			/>
		<g>
			<path style="fill:#9C5A5A;" d="M188.576,199.685l9.957,25.759c1.299,3.362,4.265,5.797,7.816,6.417l17.02,2.975
				c1.84-1.983,3.172-4.44,3.753-7.084c0.648-2.948,0.367-6.083-0.74-8.888c-4.757-0.091-9.908-0.543-15.328-1.688
				c0,0-10.758-13.075-15.248-19.825l3.209-10.611c0.292-0.964,0.173-2.006-0.329-2.879l-1.72-2.994
				c-0.443-0.771-1.151-1.353-1.992-1.64l-2.481-0.844c-1.132-0.385-2.372-0.29-3.432,0.264l-3.785,1.977
				c-0.486,0.254-0.787,0.76-0.779,1.308l0,0c0.008,0.535,0.31,1.023,0.786,1.268l1.416,0.729l1.952,3.325
				C183.98,193.981,188.576,199.685,188.576,199.685z"/>
			<path style="fill:#BA68C8;" d="M250.71,217.738c-6.121,0.289-15.31,1.299-24.329,1.126c1.107,2.805,1.388,5.94,0.74,8.888
				c-0.581,2.643-1.914,5.1-3.753,7.084l21.246,3.714c4.557,0.796,9.163-2.238,10.264-6.731c0.66-2.691,1.368-4.946,1.775-7.567
				C257.204,220.704,254.296,217.569,250.71,217.738z"/>
			<path style="opacity:0.3;" d="M250.71,217.738c-6.121,0.289-15.31,1.299-24.329,1.126c1.107,2.805,1.388,5.94,0.74,8.888
				c-0.581,2.643-1.914,5.1-3.753,7.084l21.246,3.714c4.557,0.796,9.163-2.238,10.264-6.731c0.66-2.691,1.368-4.946,1.775-7.567
				C257.204,220.704,254.296,217.569,250.71,217.738z"/>
		</g>
		<g>
			<path style="fill:#37474F;" d="M250.099,189.389c-1.37-2.83-2.26-5.98-1.938-9.108c0.321-3.128,2.003-6.218,4.776-7.7
				c2.773-1.482,6.621-0.987,8.549,1.497c5.102-2.538,11.491-2.58,16.234,0.578c4.743,3.158,7.604,8.946,7.231,14.632
				c-0.215,3.273-1.414,6.495-1.044,9.754c0.217,1.917,0.973,3.857,0.47,5.719c-0.42,1.556-1.681,2.776-3.111,3.521
				c-1.43,0.745-4.771,0.552-6.349,0.879c-4.82,4.382-10.878,2.741-14.727-1.172C256.34,204.077,250.099,189.389,250.099,189.389z"
				/>
			<polygon style="fill:#804040;" points="249.097,193.741 246.086,198.975 249.384,200.194 			"/>
			<path style="fill:#9C5A5A;" d="M248.757,191.408c0.484-4.591,1.828-8.921,4.817-11.115c-1.036,6.018,1.035,12.903,3.443,16.43
				c0.291-1.513,1.086-2.9,2.225-3.937c1.139-1.037,2.861-1.517,4.278-0.913c1.001,0.427,1.743,1.335,2.151,2.344
				c0.795,1.967,0.339,4.379-1.119,5.921c-1.458,1.542-3.842,2.13-5.85,1.445c0.677,4.1,4.177,7.44,8.233,8.339
				c2.658,0.589,5.436,0.236,7.983-0.759l1.244,6.188c-5.038,5.374-13.645,1.763-13.645,1.763l-1.134-6.088
				c-9.908,0.588-10.832,0.42-11.923-5.038C248.86,202.988,248.168,197.003,248.757,191.408z"/>
			<path style="opacity:0.3;" d="M270.698,184.744c1.414-3.944,4.227-7.451,7.886-9.421c4.209,3.26,6.716,8.643,6.367,13.965
				c-0.215,3.273-1.414,6.495-1.044,9.754c0.217,1.917,0.973,3.857,0.47,5.719c-0.42,1.556-1.681,2.776-3.111,3.521
				c-1.43,0.745-4.771,0.552-6.349,0.879c-0.208,0.189-0.421,0.352-0.633,0.519c-1.635-3.225-3.045-6.559-3.921-10.06
				C269.141,194.737,268.999,189.481,270.698,184.744z"/>
			<path style="fill:#37474F;" d="M273.447,181.303c1.543-5.092,6.607-8.897,11.927-8.963c5.32-0.066,10.477,3.614,12.145,8.666
				c2.988,9.048-4.667,18.666-2.993,28.046c0.603,3.378,2.389,6.455,3.003,9.831c0.707,3.892-0.259,8.059-2.605,11.244
				c-2.346,3.185-6.04,5.342-9.967,5.82c2.153-2.37,2.192-6.034,0.965-8.992c-1.227-2.958-3.411-5.392-5.298-7.98
				C273.02,208.541,269.703,193.658,273.447,181.303z"/>
		</g>
	</g>
</g>
</svg>
